<svg id="Capa_1" data-name="Capa 1" xmlns="http://www.w3.org/2000/svg" xmlns:xlink="http://www.w3.org/1999/xlink" viewBox="0 0 139.4 139.6"><defs><style>.cls-1{fill:#fff;}.cls-2{fill:url(#Degradado_sin_nombre);}.cls-3{fill:#32352c;}</style><linearGradient id="Degradado_sin_nombre" x1="23.23" y1="77.02" x2="139.37" y2="77.02" gradientTransform="matrix(1, 0, 0, -1, 0, 156)" gradientUnits="userSpaceOnUse"><stop offset="0" stop-color="#ffba3b"/><stop offset="0.53" stop-color="#ffa53b"/><stop offset="1" stop-color="#ff983b"/></linearGradient></defs><title>LOGO SVG</title><path class="cls-1" d="M81.3,143a64,64,0,1,1,64-64A64.06,64.06,0,0,1,81.3,143Z" transform="translate(-11.6 -9.2)"/><path class="cls-2" d="M127.1,43.2a58.1,58.1,0,1,1-81.5-10A58.21,58.21,0,0,1,127.1,43.2Z" transform="translate(-11.6 -9.2)"/><path class="cls-1" d="M111,45.9V94a11.3,11.3,0,1,1-22.6,0V52.4L73.6,56.7h0V79.8a11.3,11.3,0,1,1-22.6,0V63.2L36.2,67.5V79.7c0,14.8,11.7,26.7,26,26.7A26.28,26.28,0,0,0,75,103a26.09,26.09,0,0,0,24.5,17.7c14.4,0,26-12,26-26.7V41.6Z" transform="translate(-11.6 -9.2)"/><path class="cls-3" d="M81.3,9.2A69.8,69.8,0,1,0,151,79,69.78,69.78,0,0,0,81.3,9.2Zm0,133.8a64,64,0,1,1,64-64A64.06,64.06,0,0,1,81.3,143Z" transform="translate(-11.6 -9.2)"/></svg>